<svg width="18" height="18" viewBox="0 0 18 18" fill="none" xmlns="http://www.w3.org/2000/svg">
<g id="Frame" clip-path="url(#clip0_352_2618)">
<path id="Vector" d="M5.39083 15.6501L15.4378 5.60311C15.4378 5.60311 15.4378 5.60311 15.4378 5.6031C15.5596 5.48121 15.6281 5.31591 15.6281 5.14356C15.6281 4.97121 15.5596 4.80592 15.4378 4.68402L15.4378 4.68401M5.39083 15.6501L15.5085 4.61331L15.4378 4.68401M5.39083 15.6501H2.35M5.39083 15.6501H2.35M15.4378 4.68401L13.3161 2.56228M15.4378 4.68401L13.3161 2.56228M13.3161 2.56228C13.316 2.56228 13.316 2.56228 13.316 2.56227C13.1941 2.44042 13.0289 2.37197 12.8565 2.37197C12.6841 2.37197 12.5189 2.44042 12.397 2.56227C12.397 2.56228 12.397 2.56228 12.397 2.56228L2.35 12.6092V15.6501M13.3161 2.56228L2.35 15.6501M11.8667 7.33527L11.9374 7.26456L11.8667 7.19385L10.8062 6.13335L10.7355 6.06264L10.6648 6.13335L3.67929 13.1189L3.65 13.1481V13.1896V14.2501V14.3501H3.75H4.8105H4.85192L4.88121 14.3208L11.8667 7.33527ZM12.7858 6.27477L12.8565 6.34548L12.9272 6.27477L13.9877 5.21427L14.0584 5.14356L13.9877 5.07285L12.9272 4.01235L12.8565 3.94164L12.7858 4.01235L11.7253 5.07285L11.6546 5.14356L11.7253 5.21427L12.7858 6.27477Z" fill="black" stroke="white" stroke-width="0.2"/>
</g>
<defs>
<clipPath id="clip0_352_2618">
<rect width="18" height="18" fill="white"/>
</clipPath>
</defs>
</svg>
