<svg width="18" height="18" viewBox="0 0 18 18" fill="none" xmlns="http://www.w3.org/2000/svg">
<g id="Frame" clip-path="url(#clip0_4324_1824)">
<path id="Vector" d="M12.7499 9.85H12.75C13.3236 9.85 13.8843 10.0201 14.3612 10.3387C14.8381 10.6574 15.2098 11.1103 15.4293 11.6402C15.6487 12.1701 15.7062 12.7532 15.5943 13.3158C15.4824 13.8783 15.2062 14.395 14.8006 14.8006C14.395 15.2062 13.8783 15.4824 13.3158 15.5943C12.7532 15.7062 12.1701 15.6487 11.6402 15.4293C11.1103 15.2098 10.6574 14.8381 10.3387 14.3612C10.0201 13.8843 9.85 13.3236 9.85 12.75V12.65H9.75H8.25H8.15004L8.15 12.75C8.14973 13.4535 7.89368 14.133 7.42958 14.6618C6.96547 15.1906 6.32495 15.5326 5.62736 15.6242C4.92978 15.7157 4.22269 15.5506 3.63785 15.1594C3.05302 14.7683 2.63031 14.1779 2.4485 13.4982C2.26669 12.8186 2.33817 12.096 2.64962 11.4651C2.96107 10.8342 3.49125 10.3381 4.14138 10.0691C4.79151 9.80014 5.51725 9.7767 6.18339 10.0031C6.84952 10.2296 7.41061 10.6905 7.76213 11.3L7.79099 11.35H7.84875H10.1512H10.209L10.2379 11.3C10.4923 10.8589 10.8585 10.4927 11.2995 10.2382C11.7405 9.98362 12.2408 9.84974 12.7499 9.85ZM14.9 7.5V7.6H15H16.4V8.9H1.6V7.6H3H3.1V7.5V5.25C3.1 4.48087 3.40553 3.74325 3.94939 3.19939C4.49325 2.65553 5.23087 2.35 6 2.35H12C12.7691 2.35 13.5068 2.65553 14.0506 3.19939C14.5945 3.74325 14.9 4.48087 14.9 5.25V7.5ZM4.4 7.5V7.6H4.5H13.5H13.6V7.5V5.25C13.6 4.40414 12.8426 3.65 12 3.65H6C5.15414 3.65 4.4 4.4074 4.4 5.25V7.5ZM5.25 11.15C4.82565 11.15 4.41869 11.3186 4.11863 11.6186C3.81857 11.9187 3.65 12.3257 3.65 12.75C3.65 13.1743 3.81857 13.5813 4.11863 13.8814C4.41869 14.1814 4.82565 14.35 5.25 14.35C5.67435 14.35 6.08131 14.1814 6.38137 13.8814C6.68143 13.5813 6.85 13.1743 6.85 12.75C6.85 12.3257 6.68143 11.9187 6.38137 11.6186C6.08131 11.3186 5.67435 11.15 5.25 11.15ZM12.75 11.15C12.3257 11.15 11.9187 11.3186 11.6186 11.6186C11.3186 11.9187 11.15 12.3257 11.15 12.75C11.15 13.1743 11.3186 13.5813 11.6186 13.8814C11.9187 14.1814 12.3257 14.35 12.75 14.35C13.1743 14.35 13.5813 14.1814 13.8814 13.8814C14.1814 13.5813 14.35 13.1743 14.35 12.75C14.35 12.3257 14.1814 11.9187 13.8814 11.6186C13.5813 11.3186 13.1743 11.15 12.75 11.15Z" fill="black" stroke="white" stroke-width="0.2"/>
</g>
<defs>
<clipPath id="clip0_4324_1824">
<rect width="18" height="18" fill="white"/>
</clipPath>
</defs>
</svg>
