<svg width="18" height="18" viewBox="0 0 18 18" fill="none" xmlns="http://www.w3.org/2000/svg">
<g clip-path="url(#clip0_352_1732)">
<path d="M5.15 7.59995V7.49995V6.75V6.74995H5.25C5.24955 5.90489 5.53454 5.08445 6.05877 4.42165C6.583 3.75885 7.31572 3.29254 8.13816 3.09833C8.9606 2.90411 9.82452 2.99338 10.5899 3.35166C11.3548 3.70976 11.9765 4.31562 12.3542 5.07109L5.15 7.59995ZM5.15 7.59995H5.25H15C15.1724 7.59995 15.3377 7.66843 15.4596 7.79033C15.5815 7.91223 15.65 8.07755 15.65 8.24995V15.7499C15.65 15.9223 15.5815 16.0877 15.4596 16.2096C15.3377 16.3315 15.1724 16.3999 15 16.3999H3C2.82761 16.3999 2.66228 16.3315 2.54038 16.2096C2.41848 16.0877 2.35 15.9223 2.35 15.7499V8.24995C2.35 8.07756 2.41848 7.91223 2.54038 7.79033C2.66228 7.66843 2.82761 7.59995 3 7.59995H3.75H3.85V7.49995V6.74995V6.74991C3.84958 5.58947 4.24109 4.4629 4.96107 3.55281C5.68105 2.64273 6.68728 2.00248 7.81668 1.73584C8.94607 1.46921 10.1324 1.59182 11.1834 2.0838C12.2042 2.56164 13.0391 3.36071 13.5615 4.35737M5.15 7.59995L13.5615 4.35737M13.5615 4.35737L12.3984 4.93861C12.0072 4.20384 11.3878 3.61476 10.6323 3.26109L13.5615 4.35737ZM3.75 8.89995H3.65V8.99995V14.9999V15.0999H3.75H14.25H14.35V14.9999V8.99995V8.89995H14.25H3.75ZM7.6 11.3499H10.4V12.6499H7.6V11.3499Z" fill="black" stroke="white" stroke-width="0.2"/>
</g>
<defs>
<clipPath id="clip0_352_1732">
<rect width="18" height="18" fill="white"/>
</clipPath>
</defs>
</svg>
