<svg width="24" height="24" viewBox="0 0 24 24" fill="none" xmlns="http://www.w3.org/2000/svg">
<path d="M21.5119 19.1552L17.281 14.9243C18.1552 13.6068 18.6668 12.0293 18.6668 10.3334C18.6668 5.73837 14.9285 2 10.3334 2C5.73837 2 2 5.73837 2 10.3334C2 14.9285 5.73837 18.6668 10.3334 18.6668C12.0293 18.6668 13.6068 18.1552 14.9243 17.281L19.1552 21.5119C19.8052 22.1627 20.8619 22.1627 21.5119 21.5119C22.1627 20.861 22.1627 19.806 21.5119 19.1552ZM4.50003 10.3334C4.50003 7.11672 7.11672 4.50003 10.3334 4.50003C13.5501 4.50003 16.1668 7.11672 16.1668 10.3334C16.1668 13.5501 13.5501 16.1668 10.3334 16.1668C7.11672 16.1668 4.50003 13.5501 4.50003 10.3334Z" fill="#8D949E"/>
</svg>
